{
  "accessors": [
    {
      "bufferView": 2,
      "componentType": 5126,
      "count": 18479,
      "max": [
        24.549018859863281,
        16.738807678222656,
        13.872638702392578
      ],
      "min": [
        -36.863525390625,
        -64.128349304199219,
        -2.1114645004272461
      ],
      "type": "VEC3"
    },
    {
      "bufferView": 2,
      "byteOffset": 221748,
      "componentType": 5126,
      "count": 18479,
      "max": [
        0.99971520900726318,
        0.99947428703308105,
        0.99999797344207764
      ],
      "min": [
        -0.99910163879394531,
        -0.99919462203979492,
        -0.9999992847442627
      ],
      "type": "VEC3"
    },
    {
      "bufferView": 3,
      "componentType": 5126,
      "count": 18479,
      "max": [
        0.99990814924240112,
        0.99999910593032837,
        0.99927765130996704,
        1
      ],
      "min": [
        -0.99990510940551758,
        -0.9999426007270813,
        -0.99588489532470703,
        -1
      ],
      "type": "VEC4"
    },
    {
      "bufferView": 1,
      "componentType": 5126,
      "count": 18479,
      "max": [
        0.99516582489013672,
        0.99945163726806641
      ],
      "min": [
        0.00054835679475218058,
        0.00054835679475218058
      ],
      "type": "VEC2"
    },
    {
      "bufferView": 0,
      "componentType": 5125,
      "count": 101376,
      "max": [
        18478
      ],
      "min": [
        0
      ],
      "type": "SCALAR"
    }
  ],
  "asset": {
    "extras": {
      "author": "SusanKing (https://sketchfab.com/krolzuzannapl)",
      "license": "CC-BY-4.0 (http://creativecommons.org/licenses/by/4.0/)",
      "source": "https://sketchfab.com/3d-models/plant-succulent-5a9b00e33ae148b28158a5ecb609fc07",
      "title": "Plant / succulent"
    },
    "generator": "Sketchfab-9.24.0",
    "version": "2.0"
  },
  "bufferViews": [
    {
      "buffer": 0,
      "byteLength": 405504,
      "byteOffset": 0,
      "name": "floatBufferViews",
      "target": 34963
    },
    {
      "buffer": 0,
      "byteLength": 147832,
      "byteOffset": 405504,
      "byteStride": 8,
      "name": "floatBufferViews",
      "target": 34962
    },
    {
      "buffer": 0,
      "byteLength": 443496,
      "byteOffset": 553336,
      "byteStride": 12,
      "name": "floatBufferViews",
      "target": 34962
    },
    {
      "buffer": 0,
      "byteLength": 295664,
      "byteOffset": 996832,
      "byteStride": 16,
      "name": "floatBufferViews",
      "target": 34962
    }
  ],
  "buffers": [
    {
      "byteLength": 1292496,
      "uri": "scene.bin"
    }
  ],
  "images": [
    {
      "uri": "textures/Plant_baseColor.jpeg"
    },
    {
      "uri": "textures/Plant_metallicRoughness.png"
    },
    {
      "uri": "textures/Plant_normal.png"
    }
  ],
  "materials": [
    {
      "doubleSided": true,
      "emissiveFactor": [
        0,
        0,
        0
      ],
      "name": "Plant",
      "normalTexture": {
        "index": 2,
        "scale": 1,
        "texCoord": 0
      },
      "occlusionTexture": {
        "index": 1,
        "strength": 1,
        "texCoord": 0
      },
      "pbrMetallicRoughness": {
        "baseColorFactor": [
          1,
          1,
          1,
          1
        ],
        "baseColorTexture": {
          "index": 0,
          "texCoord": 0
        },
        "metallicFactor": 1,
        "metallicRoughnessTexture": {
          "index": 1,
          "texCoord": 0
        },
        "roughnessFactor": 1
      }
    }
  ],
  "meshes": [
    {
      "name": "plant_Plant_0",
      "primitives": [
        {
          "attributes": {
            "NORMAL": 1,
            "POSITION": 0,
            "TANGENT": 2,
            "TEXCOORD_0": 3
          },
          "indices": 4,
          "material": 0,
          "mode": 4
        }
      ]
    }
  ],
  "nodes": [
    {
      "children": [
        1
      ],
      "name": "RootNode (gltf orientation matrix)",
      "rotation": [
        -0.70710678118654746,
        -0,
        -0,
        0.70710678118654757
      ]
    },
    {
      "children": [
        2
      ],
      "name": "RootNode (model correction matrix)"
    },
    {
      "children": [
        3
      ],
      "matrix": [
        1,
        0,
        0,
        0,
        0,
        0,
        1,
        0,
        0,
        -1,
        0,
        0,
        0,
        0,
        0,
        1
      ],
      "name": "28e5fea636574308b7c1c20fbd1983bc.fbx"
    },
    {
      "children": [
        4
      ],
      "name": "RootNode"
    },
    {
      "children": [
        5
      ],
      "matrix": [
        -0.076914071336711548,
        -0.032701083221660245,
        -0.32271587147898984,
        0,
        -0.26052696977476358,
        -0.19135547206109668,
        0.081482577955250754,
        0,
        -1.0348280821197087,
        1.4512994257786576,
        0.099572969498477645,
        0,
        -4.76837158203125e-05,
        -9.5367431640625e-05,
        -5.9604644775390625e-06,
        1
      ],
      "name": "plant"
    },
    {
      "mesh": 0,
      "name": "plant_Plant_0"
    }
  ],
  "samplers": [
    {
      "magFilter": 9729,
      "minFilter": 9987,
      "wrapS": 10497,
      "wrapT": 10497
    }
  ],
  "scene": 0,
  "scenes": [
    {
      "name": "OSG_Scene",
      "nodes": [
        0
      ]
    }
  ],
  "textures": [
    {
      "sampler": 0,
      "source": 0
    },
    {
      "sampler": 0,
      "source": 1
    },
    {
      "sampler": 0,
      "source": 2
    }
  ]
}

